<?xml version="1.0" standalone="no"?>
<!DOCTYPE svg PUBLIC "-//W3C//DTD SVG 20010904//EN"
 "http://www.w3.org/TR/2001/REC-SVG-20010904/DTD/svg10.dtd">
<svg version="1.0" xmlns="http://www.w3.org/2000/svg"
 width="397.000000pt" height="397.000000pt" viewBox="0 0 397.000000 397.000000"
 preserveAspectRatio="xMidYMid meet">
<metadata>
Created by potrace 1.11, written by Peter Selinger 2001-2013
</metadata>
<g transform="translate(0.000000,397.000000) scale(0.100000,-0.100000)"
fill="#000000" stroke="none">
<path d="M1921 3299 c-19 -4 -62 -10 -95 -13 -81 -9 -136 -31 -221 -87 -204
-137 -329 -337 -385 -618 -12 -57 -19 -110 -16 -117 3 -7 2 -15 -2 -18 -9 -5
-7 -129 2 -211 10 -90 43 -201 82 -281 27 -55 36 -87 39 -140 6 -95 51 -183
122 -238 l53 -41 -7 -50 c-3 -27 -6 -61 -6 -75 1 -64 8 -110 15 -110 4 0 5 -6
2 -13 -7 -20 40 -139 75 -190 l29 -43 -42 -27 c-96 -61 -113 -111 -55 -166 46
-44 129 -55 215 -27 18 5 24 0 38 -38 32 -84 112 -141 188 -132 58 7 107 60
129 141 6 22 13 47 16 55 2 8 15 -5 32 -35 58 -101 129 -147 214 -140 65 6
120 38 148 89 37 65 34 208 -5 306 -4 10 14 37 53 77 70 72 86 116 77 205 -4
33 -18 84 -31 115 -14 30 -25 57 -25 59 0 3 24 15 53 28 121 54 202 193 214
366 2 41 13 102 23 135 61 192 69 394 24 570 -58 221 -208 436 -357 509 -120
59 -299 133 -357 148 -60 16 -184 20 -239 7z"/>
<path d="M3119 2672 c-57 -39 -93 -90 -77 -109 6 -7 16 -13 23 -13 17 0 115
90 115 106 0 25 -35 34 -61 16z"/>
<path d="M764 2519 c-7 -13 4 -59 14 -59 4 0 47 -22 95 -50 48 -27 89 -50 91
-50 8 0 36 31 36 40 0 10 -187 121 -212 125 -10 2 -20 -1 -24 -6z"/>
<path d="M3030 2389 c-7 -12 -6 -22 5 -33 13 -12 34 -14 108 -10 113 6 119 8
115 36 -3 22 -7 23 -111 24 -94 1 -109 -2 -117 -17z"/>
<path d="M3043 2153 c-26 -10 -13 -42 25 -61 20 -10 65 -33 98 -50 34 -18 68
-32 76 -32 20 0 37 20 31 37 -7 17 -78 55 -87 46 -3 -4 -6 -1 -6 5 0 14 -60
43 -73 35 -5 -3 -7 -1 -4 4 11 18 -31 28 -60 16z"/>
<path d="M826 2133 c-1 -2 -23 -3 -49 -4 -51 -2 -61 -6 -70 -31 -10 -27 14
-36 83 -31 36 2 80 5 97 6 40 3 57 19 48 46 -5 18 -13 20 -56 19 -28 -2 -52
-4 -53 -5z"/>
<path d="M1020 1840 c-33 -27 -97 -57 -155 -72 -53 -14 -73 -39 -50 -61 13
-14 22 -13 75 3 101 30 195 86 195 114 0 10 -24 35 -35 35 -3 1 -16 -8 -30
-19z"/>
</g>
</svg>
